<?xml version="1.0" standalone="no"?>
<!DOCTYPE svg PUBLIC "-//W3C//DTD SVG 20010904//EN"
 "http://www.w3.org/TR/2001/REC-SVG-20010904/DTD/svg10.dtd">
<svg version="1.0" xmlns="http://www.w3.org/2000/svg"
 width="50.000000pt" height="50.000000pt" viewBox="0 0 50.000000 50.000000"
 preserveAspectRatio="xMidYMid meet">

<g transform="translate(0.000000,50.000000) scale(0.100000,-0.100000)"
fill="#000000" stroke="none">
<path d="M321 460 c-9 -27 -14 -30 -56 -30 -63 0 -105 -20 -148 -70 -20 -24
-36 -45 -34 -46 2 -2 25 8 52 21 46 24 106 32 139 19 13 -5 15 -14 10 -40 -3
-19 -3 -34 0 -34 7 0 138 59 144 65 4 4 -85 145 -92 145 -2 0 -9 -13 -15 -30z"/>
<path d="M142 185 c-51 -24 -71 -39 -66 -47 4 -7 26 -40 48 -73 l40 -60 10 33
c8 30 11 32 58 32 64 0 106 19 146 64 44 50 40 59 -12 30 -35 -20 -56 -24 -98
-22 l-53 3 2 38 c1 20 1 37 0 37 -1 0 -35 -16 -75 -35z"/>
</g>
</svg>
